<?xml version="1.0" encoding="UTF-8"?>
<svg version="1.1" xmlns="http://www.w3.org/2000/svg" width="512" height="512">
<path d="M0 0 C1.01790619 0.00215515 2.03581238 0.0043103 3.08456421 0.00653076 C17.69363523 0.05620146 32.02575853 0.30709809 46.375 3.3125 C47.34985352 3.51117676 48.32470703 3.70985352 49.32910156 3.91455078 C97.7109774 14.03517194 141.69928269 35.9516877 177.375 70.3125 C178.3640332 71.26068604 178.3640332 71.26068604 179.37304688 72.22802734 C188.86130305 81.37247479 197.6012044 90.66984009 205.375 101.3125 C206.23306152 102.46355017 207.09113451 103.61459177 207.94921875 104.765625 C213.98736829 112.95680614 219.34595521 121.47054105 224.375 130.3125 C224.73948242 130.94430176 225.10396484 131.57610352 225.47949219 132.22705078 C247.08534998 169.97532572 256.85198095 212.74189997 256.6875 255.9375 C256.68534485 256.95540619 256.6831897 257.97331238 256.68096924 259.02206421 C256.63129854 273.63113523 256.38040191 287.96325853 253.375 302.3125 C253.07698486 303.77478027 253.07698486 303.77478027 252.77294922 305.26660156 C242.65232806 353.6484774 220.7358123 397.63678269 186.375 433.3125 C185.74287598 433.97185547 185.11075195 434.63121094 184.45947266 435.31054688 C175.31502521 444.79880305 166.01765991 453.5387044 155.375 461.3125 C154.22394983 462.17056152 153.07290823 463.02863451 151.921875 463.88671875 C143.73224019 469.92427396 135.22961724 475.30707302 126.375 480.3125 C125.66778809 480.7146875 124.96057617 481.116875 124.23193359 481.53125 C101.09654164 494.5566741 75.92537591 503.30551461 49.9375 508.625 C49.21860596 508.77235596 48.49971191 508.91971191 47.7590332 509.0715332 C33.08339502 511.86090125 18.55831162 512.66142619 3.64770508 512.62817383 C0.70811513 512.6250221 -2.2304558 512.64854926 -5.16992188 512.67382812 C-18.54306192 512.71848737 -31.43916711 511.51301542 -44.625 509.3125 C-46.33055054 509.03031616 -46.33055054 509.03031616 -48.07055664 508.74243164 C-91.33802759 500.97044532 -132.38793216 480.98345309 -165.625 452.3125 C-166.37007813 451.67828125 -167.11515625 451.0440625 -167.8828125 450.390625 C-181.38779833 438.57948485 -194.05918743 425.82889772 -204.625 411.3125 C-205.48149066 410.16255169 -206.33826433 409.01281411 -207.1953125 407.86328125 C-213.23534209 399.67315742 -218.61867614 391.16870382 -223.625 382.3125 C-224.0271875 381.60528809 -224.429375 380.89807617 -224.84375 380.16943359 C-237.8691741 357.03404164 -246.61801461 331.86287591 -251.9375 305.875 C-252.08485596 305.15610596 -252.23221191 304.43721191 -252.3840332 303.6965332 C-255.35789088 288.05024391 -255.99800362 272.57681954 -255.9375 256.6875 C-255.93534485 255.66959381 -255.9331897 254.65168762 -255.93096924 253.60293579 C-255.88129854 238.99386477 -255.63040191 224.66174147 -252.625 210.3125 C-252.42632324 209.33764648 -252.22764648 208.36279297 -252.02294922 207.35839844 C-241.90232806 158.9765226 -219.9858123 114.98821731 -185.625 79.3125 C-184.99287598 78.65314453 -184.36075195 77.99378906 -183.70947266 77.31445312 C-174.56502521 67.82619695 -165.26765991 59.0862956 -154.625 51.3125 C-153.47394983 50.45443848 -152.32290823 49.59636549 -151.171875 48.73828125 C-142.98224019 42.70072604 -134.47961724 37.31792698 -125.625 32.3125 C-124.91778809 31.9103125 -124.21057617 31.508125 -123.48193359 31.09375 C-100.34654164 18.0683259 -75.17537591 9.31948539 -49.1875 4 C-48.46860596 3.85264404 -47.74971191 3.70528809 -47.0090332 3.5534668 C-31.36274391 0.57960912 -15.88931954 -0.06050362 0 0 Z " fill="#FE6D97" transform="translate(255.625,-0.3125)"/>
<path d="M0 0 C1.07765625 -0.02835938 2.1553125 -0.05671875 3.265625 -0.0859375 C13.22472188 1.2315215 19.37344921 8.39174341 26.109375 15.16796875 C27.18644391 16.23979274 28.26402903 17.31109822 29.34210205 18.38191223 C31.59105084 20.6204959 33.83242491 22.86633643 36.06884766 25.11743164 C38.92042905 27.98619553 41.79185156 30.83411326 44.66955185 33.67664623 C46.89709155 35.88211399 49.11269529 38.09928082 51.32508087 40.31994057 C52.3785245 41.37419833 53.43576401 42.42467855 54.49700165 43.47109032 C61.24161173 50.1358155 66.84340898 56.14218672 68.25 65.8125 C67.16219301 73.56312484 64.51109311 78.8767336 59.15234375 84.62109375 C58.44339462 85.3814946 58.44339462 85.3814946 57.72012329 86.15725708 C51.23974457 93.0559396 44.57174784 99.77607008 37.88818359 106.47705078 C35.61484143 108.76020241 33.3524049 111.05382671 31.08984375 113.34765625 C29.62045053 114.82357291 28.15042054 116.29885595 26.6796875 117.7734375 C26.01693817 118.44853363 25.35418884 119.12362976 24.6713562 119.81918335 C18.05722571 126.40251631 11.2135922 132.47615052 1.625 132.6875 C-4.23138619 132.61647437 -8.6407602 132.14428722 -13.25 128.375 C-19.25686177 121.93811681 -21.75173297 115.95558323 -21.5625 107.15625 C-20.89468961 101.21273749 -18.32738627 97.37813134 -14.15869141 93.25317383 C-13.34315292 92.44424431 -13.34315292 92.44424431 -12.51113892 91.61897278 C-12.09496307 91.20846176 -11.67878723 90.79795074 -11.25 90.375 C-12.12722403 90.37537703 -13.00444805 90.37575405 -13.90825462 90.3761425 C-35.27559385 90.38326667 -56.64267086 90.35729853 -78.00992393 90.2947216 C-88.34309533 90.2652534 -98.67606141 90.2468917 -109.00927734 90.25488281 C-118.01813247 90.26182134 -127.02666971 90.24771047 -136.03544676 90.20856392 C-140.80345524 90.18857382 -145.57096485 90.17896136 -150.3390007 90.19457626 C-154.83231636 90.20895838 -159.32468124 90.19507126 -163.81787491 90.16004753 C-165.46169087 90.15211734 -167.10559337 90.15427522 -168.74937439 90.16760826 C-178.07330153 90.23680465 -185.90933595 89.90249711 -193.25 83.375 C-198.55829048 77.1736996 -200.1874848 71.58493331 -199.765625 63.42578125 C-198.57332282 56.3713267 -194.40791549 52.08852298 -189.09375 47.6015625 C-184.53210749 44.56691049 -180.53928121 44.1202485 -175.11894226 44.0965271 C-174.05897757 44.0878385 -174.05897757 44.0878385 -172.97759944 44.07897437 C-170.6161232 44.06200543 -168.25484277 44.05910058 -165.89331055 44.05615234 C-164.19800845 44.04685202 -162.50271093 44.03668319 -160.80741882 44.02571106 C-156.20869772 43.9984088 -151.61000726 43.98326096 -147.01122642 43.97028303 C-142.20388509 43.95465352 -137.39660634 43.92786271 -132.58930969 43.9022522 C-123.48759614 43.85546127 -114.38587082 43.81871866 -105.28409845 43.78557932 C-94.92138404 43.74736018 -84.55873247 43.69794946 -74.19607103 43.64759517 C-52.88076042 43.54427063 -31.56541003 43.45501189 -10.25 43.375 C-10.80465942 42.83312042 -11.35931885 42.29124084 -11.93078613 41.73294067 C-12.65552124 41.01814545 -13.38025635 40.30335022 -14.12695312 39.56689453 C-15.20644226 38.50657516 -15.20644226 38.50657516 -16.30773926 37.42483521 C-21.6622987 31.773707 -21.83689147 26.24818203 -21.6640625 18.79296875 C-20.89434574 12.43917478 -17.87331769 8.63735048 -13.1875 4.5 C-8.58462937 1.1702638 -5.74993214 0.06812716 0 0 Z " fill="#F8E0D7" transform="translate(322.25,189.625)"/>
</svg>
